<svg xmlns="http://www.w3.org/2000/svg" viewBox="0 0 473 366" width="473" height="366" color="#000" role="img">
  <path fill="currentColor" fill-rule="evenodd" d="M290.30 352.90C289.59 352.19 289.37 349.79 289.71 346.52C290.01 343.63 289.84 341.02 289.34 340.71C288.85 340.40 284.40 340.81 279.47 341.60C263.32 344.21 262.00 344.33 262.00 343.13C262.00 342.51 262.90 342.00 264.00 342.00C265.10 342.00 266.00 341.35 266.00 340.55C266.00 339.15 255.22 338.75 222.50 338.93C161.80 339.25 78.24 340.11 77.41 340.42C76.81 340.64 75.70 340.43 74.94 339.96C74.15 339.48 73.06 339.54 72.37 340.11C71.58 340.77 70.96 340.75 70.53 340.05C70.12 339.38 69.26 339.33 68.18 339.91C67.18 340.44 64.62 340.46 61.99 339.95C55.64 338.73 44.73 338.76 45.50 340.00C45.84 340.55 46.99 341.00 48.06 341.00C49.30 341.00 50.00 341.69 50.00 342.89C50.00 345.38 47.13 346.42 45.11 344.66C43.29 343.09 40.71 342.38 33.50 341.48C30.75 341.14 27.09 340.49 25.37 340.04C23.65 339.60 21.77 339.53 21.18 339.89C20.59 340.25 19.98 343.24 19.81 346.52C19.58 350.87 19.11 352.50 18.08 352.50C16.88 352.50 16.67 345.99 16.72 309.50C16.76 285.85 16.55 266.12 16.27 265.66C15.99 265.19 15.62 239.54 15.44 208.66C15.25 177.77 14.86 141.25 14.56 127.50C13.19 65.48 12.80 19.14 13.62 17.81C13.89 17.36 26.81 16.99 42.31 16.99C57.81 16.99 78.15 16.72 87.50 16.40C96.85 16.08 116.34 15.86 130.81 15.91C171.49 16.05 188.66 15.97 226.50 15.44C245.75 15.18 270.27 15.02 281.00 15.09C291.73 15.16 301.18 15.15 302.00 15.06C303.78 14.87 365.48 14.13 382.00 14.10C405.53 14.05 413.96 13.87 432.45 13.01C442.88 12.53 451.77 12.35 452.20 12.63C452.64 12.90 453.00 14.00 453.00 15.07C453.00 16.85 452.51 16.96 447.39 16.36L441.77 15.70L442.50 21.10C442.89 24.07 444.07 30.52 445.11 35.43C447.44 46.42 447.44 46.00 444.91 46.00C443.06 46.00 442.89 46.43 443.39 49.75C443.71 51.81 443.63 56.20 443.22 59.50C442.21 67.65 442.94 71.50 445.50 71.50C447.69 71.50 447.71 71.81 445.89 81.00C445.29 84.03 444.42 88.53 443.96 91.00C443.50 93.47 442.82 96.72 442.45 98.20C441.87 100.56 442.14 101.00 444.54 101.60C446.39 102.06 448.38 101.71 450.57 100.53C454.52 98.40 456.00 99.12 456.00 103.19L456.00 106.26L450.83 105.57C447.98 105.19 445.17 104.80 444.58 104.69C443.32 104.47 442.90 112.74 444.06 115.03C445.19 117.26 448.27 136.06 447.61 136.72C446.76 137.57 444.00 134.96 444.00 133.32C444.00 132.53 443.64 132.11 443.19 132.38C442.75 132.66 442.72 135.95 443.13 139.69C443.54 143.44 443.65 147.31 443.36 148.30C443.07 149.29 443.28 150.64 443.82 151.30C444.36 151.96 444.85 155.20 444.90 158.50C444.96 161.80 445.06 166.53 445.13 169.00C445.20 171.47 445.19 178.00 445.11 183.50C445.02 189.00 444.97 204.07 444.98 217.00C445.00 229.93 444.76 245.00 444.45 250.50C444.02 258.03 444.15 260.07 444.99 258.75C446.95 255.65 448.76 256.72 449.19 261.22C449.52 264.62 447.44 281.25 445.85 288.00C445.47 289.64 448.55 289.82 455.00 288.54C457.95 287.96 458.71 288.20 459.84 290.05C460.97 291.91 460.95 292.48 459.73 293.70C458.52 294.91 456.24 294.98 445.39 294.15C432.14 293.13 402.08 293.63 400.76 294.88C399.89 295.70 399.86 297.58 400.49 308.50C401.52 326.46 401.69 349.56 400.80 350.69C399.37 352.49 397.00 351.09 397.00 348.46C397.00 347.18 397.44 344.96 397.99 343.54C398.85 341.27 398.66 340.80 396.42 339.78C394.51 338.91 392.82 338.90 389.69 339.75C385.05 340.99 384.33 340.65 383.84 337.00C383.46 334.24 383.71 334.19 392.27 335.53L397.05 336.28L396.40 315.89C396.05 304.68 395.42 295.13 395.02 294.69C394.61 294.24 392.97 293.89 391.39 293.91C389.80 293.93 370.50 294.13 348.50 294.35C326.50 294.58 304.95 294.92 300.62 295.13L292.74 295.50L292.90 315.94C292.98 327.19 293.20 336.53 293.38 336.71C294.07 337.41 309.00 334.70 309.00 333.88C309.00 333.40 310.01 332.99 311.25 332.98C312.49 332.98 314.13 332.57 314.91 332.08C316.97 330.77 319.00 331.90 319.00 334.36C319.00 336.49 319.10 336.50 344.50 336.50C364.23 336.50 370.00 336.22 370.00 335.25C370.00 334.56 369.32 334.00 368.50 334.00C367.68 334.00 367.00 333.55 367.00 333.00C367.00 332.45 369.00 332.00 371.44 332.00C373.88 332.00 376.16 332.45 376.50 333.00C376.84 333.55 378.23 334.00 379.59 334.00C381.77 334.00 381.94 334.25 380.99 336.01C380.14 337.60 380.24 338.16 381.45 338.62C382.30 338.94 382.74 339.62 382.43 340.12C382.12 340.62 381.52 340.82 381.09 340.56C380.67 340.30 377.46 340.95 373.97 342.01C370.47 343.07 367.37 343.71 367.09 343.42C366.81 343.14 367.12 342.04 367.79 340.97C368.45 339.90 369.00 338.91 369.00 338.76C369.00 338.57 323.25 338.75 317.64 338.97C317.17 338.99 317.84 339.87 319.14 340.93C321.33 342.71 321.36 342.90 319.67 343.56C318.67 343.95 316.19 343.77 314.16 343.17C312.14 342.56 309.52 342.31 308.34 342.62C307.17 342.93 305.22 342.65 304.02 342.01C302.82 341.37 299.92 340.63 297.58 340.37L293.34 339.91L293.42 346.60C293.50 353.23 292.55 355.15 290.30 352.90ZM231.00 336.88C264.03 337.00 266.34 336.90 264.25 335.38C261.66 333.51 261.14 330.45 263.57 331.39C264.43 331.72 269.72 332.90 275.32 334.01C280.92 335.12 286.49 336.25 287.69 336.52L289.89 337.01L289.38 316.25L288.88 295.50L281.19 295.34C236.78 294.39 22.08 295.52 20.90 296.70C20.35 297.25 20.07 305.67 20.23 316.57L20.50 335.50L24.00 335.43C25.93 335.39 32.38 334.55 38.34 333.56C45.73 332.34 49.50 332.10 50.20 332.80C50.90 333.50 50.31 334.31 48.36 335.35C45.76 336.74 49.08 336.85 85.00 336.63C106.72 336.49 133.95 336.63 145.50 336.94C157.05 337.25 173.03 337.33 181.00 337.13C188.97 336.92 211.47 336.81 231.00 336.88ZM374.13 335.25C375.37 333.66 375.34 333.63 373.75 334.87C372.08 336.18 371.55 337.00 372.38 337.00C372.59 337.00 373.37 336.21 374.13 335.25ZM153.19 328.29C150.03 327.68 149.58 325.92 151.03 319.76C152.73 312.50 153.28 312.04 160.10 312.13C166.80 312.23 167.39 313.27 164.36 319.66C163.13 322.25 163.00 323.40 163.86 324.26C165.50 325.90 165.27 329.00 163.50 329.00C162.68 329.00 162.00 328.31 162.00 327.47C162.00 326.11 161.69 326.11 159.05 327.47C157.43 328.31 155.96 328.94 155.80 328.86C155.63 328.79 154.46 328.53 153.19 328.29ZM342.75 326.28C338.83 325.69 338.88 325.29 345.61 302.17C346.43 299.36 348.49 301.78 348.22 305.22C347.96 308.61 348.09 308.76 351.91 309.37C356.25 310.06 357.30 311.69 356.44 316.38C355.26 322.83 351.01 327.40 346.68 326.85C346.03 326.77 344.26 326.51 342.75 326.28ZM160.47 323.05C161.31 321.43 162.00 318.73 162.00 317.05C162.00 314.52 161.60 314.00 159.65 314.00C156.70 314.00 154.43 316.54 153.50 320.87C152.31 326.48 157.81 328.20 160.47 323.05ZM352.05 319.37C353.46 315.65 353.22 314.19 350.99 312.99C346.74 310.72 341.52 320.51 345.72 322.87C348.01 324.15 350.82 322.59 352.05 319.37ZM424.00 289.66C424.00 288.67 436.10 289.33 437.86 290.42C438.54 290.83 439.65 290.71 440.33 290.14C441.33 289.31 441.32 286.72 440.30 277.30C439.60 270.81 438.52 264.64 437.90 263.59C436.98 262.01 437.17 261.38 438.97 260.02L441.17 258.36L440.68 195.25C440.42 160.53 439.90 131.64 439.53 131.05C438.51 129.41 437.33 130.62 436.65 133.98C436.07 136.90 433.99 138.29 434.01 135.75C434.02 134.48 435.66 124.00 436.72 118.50C437.03 116.85 437.34 113.03 437.40 110.00L437.50 104.50L430.50 104.78C426.65 104.93 417.73 105.13 410.68 105.22L397.86 105.38L398.42 120.44C399.33 144.63 400.03 187.91 400.36 240.08C400.53 266.79 400.96 289.12 401.31 289.69C402.07 290.93 423.99 290.90 424.00 289.66ZM73.00 288.09C80.97 288.02 97.85 288.00 110.50 288.05C155.83 288.22 197.10 288.23 233.16 288.09C253.33 288.01 270.20 288.01 270.66 288.09C271.12 288.17 275.26 288.18 279.86 288.12C286.71 288.02 288.11 287.74 287.66 286.55C287.35 285.75 287.03 280.69 286.93 275.30C286.84 269.91 286.49 265.05 286.16 264.50C284.94 262.50 284.82 253.81 285.52 216.00C285.68 207.47 285.75 195.32 285.67 189.00C285.60 182.68 285.53 171.76 285.52 164.75C285.51 157.74 285.19 152.00 284.81 152.00C284.43 152.00 284.31 150.99 284.56 149.75C284.80 148.51 285.11 139.06 285.25 128.75C285.44 114.53 285.80 110.00 286.75 110.00C287.44 110.00 288.00 109.29 288.00 108.43C288.00 107.32 287.42 107.05 286.00 107.50C284.76 107.89 284.00 107.68 284.00 106.94C284.00 106.13 283.60 106.07 282.75 106.74C282.06 107.28 280.82 107.75 280.00 107.78C270.63 108.11 207.60 107.56 202.37 107.10C201.74 107.04 200.98 106.04 200.68 104.88C200.19 103.01 199.66 102.84 196.31 103.47C192.06 104.26 191.34 104.67 192.38 105.71C192.77 106.10 193.91 105.91 194.92 105.28C196.24 104.46 197.05 104.45 197.83 105.23C200.50 107.90 194.61 108.61 172.50 108.28C160.40 108.10 149.82 108.00 149.00 108.06C146.90 108.20 91.54 108.88 54.33 109.22C37.19 109.37 22.87 109.80 22.50 110.16C21.47 111.20 21.28 136.36 22.22 148.00C22.69 153.78 23.17 187.17 23.29 222.20C23.44 268.55 23.81 286.21 24.65 287.05C25.40 287.80 30.43 288.19 39.22 288.18C46.60 288.17 53.26 288.54 54.01 289.01C54.77 289.48 56.09 289.49 56.95 289.04C57.80 288.59 65.03 288.17 73.00 288.09ZM312.31 286.92C316.06 286.39 319.52 286.20 320.00 286.50C320.47 286.79 331.36 286.99 344.18 286.95C369.35 286.85 373.42 286.90 385.25 287.45L393.00 287.81L393.11 281.66C393.17 278.27 393.34 273.48 393.50 271.00C393.65 268.52 393.40 266.04 392.95 265.47C392.49 264.90 392.12 262.65 392.11 260.47C392.11 258.29 392.06 251.88 392.00 246.23C391.95 240.59 392.16 235.54 392.48 235.03C393.20 233.87 393.19 190.56 392.47 143.00L391.93 107.50L371.72 107.36C301.83 106.90 294.45 107.14 291.81 109.97C290.71 111.15 290.47 111.99 291.17 112.22C291.93 112.48 292.27 118.28 292.26 130.55C292.25 140.42 292.66 149.59 293.16 150.92C293.67 152.25 294.03 169.35 293.98 188.92C293.85 232.07 294.39 285.37 294.98 288.60C295.03 288.87 306.21 287.79 312.31 286.92ZM397.00 285.00C397.00 284.45 396.55 284.00 396.00 284.00C395.45 284.00 395.00 284.45 395.00 285.00C395.00 285.55 395.45 286.00 396.00 286.00C396.55 286.00 397.00 285.55 397.00 285.00ZM292.00 239.56C292.00 239.32 291.55 238.84 291.00 238.50C290.45 238.16 290.00 238.36 290.00 238.94C290.00 239.52 290.45 240.00 291.00 240.00C291.55 240.00 292.00 239.80 292.00 239.56ZM416.74 198.47C415.23 196.96 414.00 194.87 414.00 193.81C414.00 190.93 416.85 186.00 418.53 186.00C420.46 186.00 420.44 189.62 418.50 190.36C414.38 191.94 418.88 197.75 424.10 197.60C426.80 197.52 427.56 197.05 427.81 195.31C427.98 194.10 427.37 191.97 426.45 190.56C424.80 188.05 424.82 188.00 427.22 188.00C429.86 188.00 432.01 191.29 431.98 195.30C431.96 199.12 430.41 200.30 424.83 200.76C420.03 201.16 419.20 200.93 416.74 198.47ZM174.00 106.00C174.00 105.45 173.52 105.00 172.94 105.00C172.36 105.00 172.16 105.45 172.50 106.00C172.84 106.55 173.32 107.00 173.56 107.00C173.80 107.00 174.00 106.55 174.00 106.00ZM245.50 104.00C245.16 103.45 244.43 103.00 243.88 103.00C243.33 103.00 243.16 103.45 243.50 104.00C243.84 104.55 244.57 105.00 245.12 105.00C245.67 105.00 245.84 104.55 245.50 104.00ZM281.79 104.46C280.71 103.37 276.00 102.99 276.00 103.98C276.00 104.54 277.43 105.00 279.17 105.00C280.91 105.00 282.09 104.76 281.79 104.46ZM362.00 104.03C362.00 103.69 361.46 102.86 360.80 102.20C359.43 100.83 358.66 100.90 378.50 100.66L391.50 100.50L391.27 72.50C391.14 57.10 390.69 39.33 390.27 33.00L389.50 21.50L364.50 21.35C350.75 21.27 337.14 20.93 334.25 20.60C331.36 20.26 329.00 20.32 329.00 20.74C328.99 21.16 319.90 21.57 308.78 21.65C295.05 21.75 288.45 22.15 288.20 22.90C287.99 23.52 288.48 23.75 289.32 23.43C290.13 23.12 291.17 23.46 291.62 24.18C292.07 24.91 292.51 42.60 292.61 63.50L292.78 101.50L300.39 101.79C304.57 101.95 308.00 101.72 308.00 101.28C308.00 100.64 333.46 100.45 354.84 100.93C357.21 100.98 358.33 101.54 358.67 102.83C359.10 104.50 362.00 105.54 362.00 104.03ZM121.50 102.11C139.10 102.09 163.18 102.04 175.00 101.98C210.14 101.82 270.05 101.71 276.50 101.78C279.80 101.82 283.29 101.86 284.26 101.87C285.78 101.88 285.94 101.18 285.46 96.64C285.15 93.76 285.36 90.18 285.92 88.70C286.50 87.18 286.56 86.00 286.05 86.00C285.52 86.00 285.13 72.58 285.12 54.39C285.12 37.00 284.96 22.63 284.78 22.45C284.60 22.26 277.04 22.07 267.97 22.01C244.37 21.86 198.86 21.74 196.50 21.82C195.40 21.85 169.53 22.08 139.00 22.32C28.87 23.19 22.02 23.35 20.96 25.00C20.41 25.86 20.23 30.80 20.53 36.50C20.82 42.00 21.07 58.76 21.10 73.73C21.12 88.71 21.44 101.15 21.82 101.38C22.19 101.60 28.35 102.10 35.50 102.49C42.65 102.87 48.57 103.25 48.66 103.34C48.75 103.43 57.98 103.19 69.16 102.82C80.35 102.44 103.90 102.12 121.50 102.11ZM420.51 101.84C421.06 101.53 425.21 101.39 429.75 101.52C438.51 101.78 439.29 101.28 436.97 96.95C436.40 95.89 435.73 91.14 435.46 86.40C435.20 81.66 434.76 77.42 434.49 76.98C434.22 76.54 434.38 75.15 434.85 73.88L435.70 71.57L436.90 73.82C438.46 76.72 440.28 75.58 439.56 72.15C438.32 66.26 437.89 61.09 437.93 52.85C437.97 46.46 437.63 44.07 436.63 43.69C435.57 43.28 435.39 41.22 435.80 34.33C436.09 29.48 436.36 23.48 436.41 21.00L436.50 16.50L428.75 16.21C424.49 16.05 421.00 16.31 421.00 16.79C421.00 17.27 416.08 17.55 410.06 17.41C401.82 17.22 398.84 17.49 397.99 18.51C397.25 19.40 397.04 23.05 397.37 29.18C397.64 34.31 397.98 52.95 398.12 70.61L398.38 102.72L408.95 102.57C414.77 102.48 419.97 102.15 420.51 101.84ZM418.43 60.96C414.96 59.68 413.77 57.33 414.16 52.48L414.52 47.91L410.33 46.85C406.19 45.81 404.13 43.66 406.10 42.44C406.66 42.09 409.29 42.74 411.93 43.88C418.87 46.86 424.86 47.43 427.18 45.33C428.65 44.01 429.31 43.91 430.27 44.87C431.17 45.77 431.19 46.27 430.34 46.79C428.86 47.71 428.48 50.04 429.45 52.26C430.29 54.17 429.34 60.91 428.20 61.14C425.50 61.68 420.10 61.58 418.43 60.96ZM427.00 56.11C427.00 52.96 423.79 50.05 420.00 49.76C416.88 49.53 416.47 49.79 416.19 52.15C415.81 55.46 419.08 58.00 423.72 58.00C426.27 58.00 427.00 57.58 427.00 56.11ZM289.73 44.40C289.40 44.06 288.53 44.03 287.81 44.32C287.01 44.64 287.25 44.87 288.42 44.92C289.47 44.96 290.06 44.73 289.73 44.40ZM155.00 20.00C155.00 19.45 154.55 19.00 154.00 19.00C153.45 19.00 153.00 19.45 153.00 20.00C153.00 20.55 153.45 21.00 154.00 21.00C154.55 21.00 155.00 20.55 155.00 20.00ZM92.50 19.00C92.16 18.45 91.46 18.00 90.94 18.00C90.42 18.00 90.00 18.45 90.00 19.00C90.00 19.55 90.70 20.00 91.56 20.00C92.42 20.00 92.84 19.55 92.50 19.00ZM333.50 17.00C333.16 16.45 332.43 16.00 331.88 16.00C331.33 16.00 331.16 16.45 331.50 17.00C331.84 17.55 332.57 18.00 333.12 18.00C333.67 18.00 333.84 17.55 333.50 17.00Z"/>
</svg>
