<svg xmlns="http://www.w3.org/2000/svg" viewBox="0 0 402 371" width="402" height="371" color="#000" role="img">
  <path fill="currentColor" fill-rule="evenodd" d="M13.50 358.00C12.71 356.73 14.55 355.04 16.75 355.02C18.27 355.00 18.19 355.46 18.52 344.75C18.79 336.17 18.75 336.00 16.46 336.00C12.27 336.00 12.77 334.03 17.45 332.02C19.97 330.94 22.34 330.16 22.72 330.28C23.10 330.40 23.28 336.01 23.12 342.75C22.83 354.49 22.91 355.00 24.85 355.00C27.02 355.00 28.56 356.53 27.23 357.36C26.79 357.63 23.69 358.16 20.35 358.54C15.98 359.03 14.05 358.88 13.50 358.00ZM35.70 358.18C32.61 357.59 33.93 354.06 39.47 348.03C45.38 341.61 46.99 337.90 44.95 335.44C43.39 333.55 39.54 333.94 39.40 336.00C39.12 340.37 38.88 341.00 37.48 341.00C36.64 341.00 35.45 339.89 34.84 338.54C33.94 336.58 34.04 335.58 35.32 333.63C38.80 328.32 49.15 329.87 50.47 335.88C51.47 340.44 50.49 342.34 44.46 347.49C41.46 350.06 39.00 352.79 39.00 353.58C39.00 356.04 44.75 355.31 47.16 352.53C49.93 349.34 50.85 350.01 50.09 354.68L49.48 358.44L43.43 358.47C40.11 358.49 36.63 358.35 35.70 358.18ZM123.31 357.99C118.25 355.95 116.89 348.20 121.19 345.90C123.02 344.92 123.04 344.71 121.51 342.37C119.17 338.81 119.93 334.12 123.25 331.66C126.58 329.18 130.24 330.08 133.25 334.13C135.13 336.65 135.14 336.91 133.51 340.35C131.86 343.81 131.87 344.03 133.90 346.60C137.57 351.26 136.12 355.86 130.28 358.08C127.41 359.18 126.21 359.16 123.31 357.99ZM206.78 357.25C202.32 352.13 201.50 343.19 204.81 335.70C207.05 330.62 209.44 329.59 213.90 331.75C216.38 332.95 217.34 334.35 218.55 338.53C220.18 344.15 219.89 346.72 216.83 353.64C214.37 359.22 209.90 360.82 206.78 357.25ZM355.37 357.51C351.61 355.93 350.00 352.28 350.00 345.32C350.00 336.88 354.97 330.00 361.07 330.00C364.16 330.00 367.50 333.27 366.65 335.46C365.80 337.69 363.48 337.35 361.74 334.75C360.26 332.54 360.20 332.53 358.14 334.38C355.83 336.46 354.57 339.49 355.43 340.89C355.75 341.40 357.53 341.44 359.53 340.99C362.66 340.29 363.27 340.49 364.71 342.68C366.99 346.16 366.73 349.91 363.92 354.21C361.09 358.52 359.36 359.19 355.37 357.51ZM98.00 356.57C98.00 355.78 99.01 355.00 100.25 354.82C102.40 354.51 102.50 354.09 102.50 345.00C102.50 335.91 102.40 335.49 100.25 335.18C97.02 334.72 97.47 333.34 101.49 331.44C106.96 328.84 107.56 329.63 107.34 339.13C107.07 350.85 107.72 354.69 110.07 355.31C111.13 355.59 112.00 356.30 112.00 356.91C112.00 357.59 109.40 358.00 105.00 358.00C99.60 358.00 98.00 357.67 98.00 356.57ZM183.64 356.49C181.52 354.38 180.61 350.99 181.83 349.77C183.34 348.26 186.00 349.62 186.00 351.91C186.00 354.46 187.51 355.34 190.56 354.58C192.54 354.08 193.00 353.33 193.00 350.60C193.00 346.85 191.70 345.36 188.00 344.85C186.60 344.65 185.50 343.84 185.50 343.00C185.50 342.15 186.59 341.36 188.00 341.18C190.37 340.88 193.00 338.57 193.00 336.81C193.00 336.36 192.11 335.11 191.02 334.02C188.60 331.60 186.00 332.39 186.00 335.55C186.00 338.49 184.22 339.66 182.47 337.87C180.22 335.57 183.05 330.37 187.03 329.49C193.32 328.11 198.63 335.18 194.96 340.05C193.22 342.35 193.24 342.50 195.59 345.29C198.56 348.82 198.16 352.55 194.48 355.75C191.46 358.37 185.89 358.75 183.64 356.49ZM271.71 357.38C270.48 356.15 270.93 355.16 273.00 354.50C276.91 353.26 275.30 351.00 270.50 351.00C264.77 351.00 264.74 349.95 270.25 341.61C272.59 338.07 275.28 333.76 276.24 332.02C279.04 326.95 280.03 329.21 279.58 339.62C279.25 347.26 279.45 349.24 280.61 349.68C281.81 350.14 281.75 350.48 280.28 351.62C278.58 352.94 278.59 353.07 280.43 354.49C281.49 355.31 282.08 356.25 281.75 356.58C280.82 357.52 272.51 358.18 271.71 357.38ZM288.25 357.39C285.97 356.37 286.94 354.25 293.00 347.00C300.59 337.91 301.09 333.00 294.42 333.00C293.52 333.00 293.00 334.06 293.00 335.89C293.00 337.62 292.36 339.03 291.41 339.40C289.20 340.24 288.00 339.28 288.00 336.66C288.00 329.69 296.62 327.38 301.41 333.08C305.08 337.43 304.67 339.65 299.25 345.00C296.64 347.57 293.64 350.65 292.60 351.84L290.69 354.00L294.35 354.00C296.67 354.00 298.73 353.27 300.00 352.00C302.91 349.09 304.04 349.51 303.33 353.25C302.99 355.04 302.54 356.70 302.32 356.96C301.71 357.65 289.67 358.02 288.25 357.39ZM375.10 356.25C371.99 353.69 370.25 344.44 371.87 339.05C373.34 334.15 378.35 329.00 381.65 329.00C386.22 329.00 390.24 335.93 386.50 337.36C385.59 337.71 384.38 336.98 383.39 335.47C381.25 332.20 379.39 332.35 377.53 335.95C375.29 340.27 375.59 340.94 379.43 340.32C382.21 339.87 383.34 340.25 385.43 342.34C392.52 349.43 382.77 362.57 375.10 356.25ZM130.54 353.58C131.87 351.55 131.91 350.83 130.81 349.07C127.95 344.48 123.00 345.80 123.00 351.15C123.00 353.24 123.64 354.32 125.25 354.97C128.55 356.29 128.80 356.23 130.54 353.58ZM212.98 355.03C214.01 354.38 214.55 351.89 214.77 346.80C215.11 338.70 213.65 334.50 210.50 334.50C207.35 334.50 205.85 338.70 206.32 346.24C206.85 354.86 208.92 357.60 212.98 355.03ZM360.80 353.80C362.50 352.10 362.30 345.49 360.51 344.00C358.31 342.18 354.00 345.22 354.00 348.59C354.00 353.94 357.77 356.83 360.80 353.80ZM382.02 351.43C384.23 345.64 382.54 342.07 378.31 343.56C375.31 344.61 374.54 347.52 376.12 351.79C377.26 354.88 380.80 354.67 382.02 351.43ZM275.83 346.18C276.01 344.90 275.86 343.10 275.50 342.18C274.95 340.76 274.48 340.96 272.43 343.50C269.19 347.51 269.30 349.21 272.75 348.82C274.75 348.59 275.59 347.87 275.83 346.18ZM129.79 336.61C129.63 335.56 128.69 334.21 127.69 333.60C126.25 332.72 125.59 332.89 124.44 334.44C122.54 337.01 122.61 337.61 125.15 340.15C127.25 342.25 127.34 342.26 128.69 340.41C129.45 339.37 129.95 337.66 129.79 336.61ZM14.12 295.12C12.34 293.96 13.56 292.00 16.06 292.00C17.71 292.00 18.00 291.28 18.00 287.14C18.00 284.47 17.71 280.19 17.36 277.64C16.81 273.61 16.42 273.00 14.36 273.00C10.40 273.00 11.67 270.24 16.65 268.03C19.21 266.90 21.44 266.11 21.60 266.27C21.76 266.43 22.11 271.72 22.38 278.03C22.65 284.34 22.90 289.79 22.94 290.13C22.97 290.48 23.90 291.00 25.00 291.29C27.19 291.86 27.75 293.95 25.75 294.08C23.45 294.24 20.52 294.72 18.00 295.37C16.62 295.73 14.88 295.62 14.12 295.12ZM39.35 294.83C34.37 292.41 31.90 277.90 35.35 271.26C38.51 265.20 45.35 266.24 47.93 273.17C48.61 275.00 49.58 277.28 50.08 278.24C52.00 281.87 50.09 290.00 46.46 293.63C43.89 296.21 42.64 296.42 39.35 294.83ZM98.67 294.33C97.40 293.07 98.01 291.95 100.45 291.02C102.80 290.12 102.88 289.78 102.58 282.16C102.22 273.32 101.75 272.00 98.94 272.00C95.63 272.00 96.82 269.58 101.00 267.83C105.74 265.84 106.41 266.47 106.50 273.00C106.71 289.48 106.94 291.17 109.00 291.71C110.10 292.00 111.00 292.86 111.00 293.62C111.00 294.64 109.47 295.00 105.17 295.00C101.96 295.00 99.03 294.70 98.67 294.33ZM121.47 294.05C117.99 292.64 116.84 290.55 117.95 287.64C119.19 284.38 121.76 285.10 122.19 288.83C122.86 294.62 130.00 291.51 130.00 285.42C130.00 280.02 124.96 276.93 122.00 280.50C119.30 283.76 118.31 282.18 118.41 274.75L118.50 267.50L125.83 267.20C132.96 266.92 133.14 266.97 132.83 269.20C132.52 271.33 132.10 271.48 126.89 271.16C121.72 270.85 121.23 271.01 120.65 273.16C119.65 276.90 119.78 277.02 124.43 276.85C129.94 276.64 133.52 278.84 134.34 282.93C135.95 291.02 128.94 297.08 121.47 294.05ZM188.50 294.07C179.71 293.35 179.54 292.27 186.90 284.20C193.37 277.10 194.43 272.98 190.44 270.37C187.59 268.50 186.34 269.22 185.83 273.00C185.39 276.29 181.64 276.51 181.18 273.26C180.78 270.43 185.38 266.00 188.72 266.00C190.09 266.00 192.47 267.31 194.16 269.00C198.63 273.47 197.76 277.61 191.11 283.59C188.30 286.12 186.00 288.56 186.00 289.01C186.00 289.47 187.39 290.15 189.08 290.52C191.50 291.05 192.68 290.71 194.58 288.93C195.91 287.68 197.16 286.85 197.35 287.08C197.96 287.78 196.83 295.01 196.14 294.82C195.79 294.73 192.35 294.39 188.50 294.07ZM204.45 292.55C201.63 289.72 201.44 288.71 203.44 287.05C204.61 286.08 205.17 286.43 206.46 288.93C207.34 290.62 208.52 292.00 209.09 292.00C214.79 292.00 216.94 282.64 211.87 279.93C210.34 279.11 209.29 279.23 207.47 280.43C203.55 283.00 203.12 282.41 203.32 274.75L203.50 267.50L207.76 267.36C210.11 267.28 213.14 266.93 214.51 266.59C216.53 266.08 217.00 266.33 217.00 267.92C217.00 270.67 215.34 271.40 209.80 271.11C206.10 270.91 205.00 271.19 205.00 272.34C205.00 273.16 204.73 274.55 204.39 275.42C203.89 276.73 204.64 277.00 208.83 277.00C211.61 277.00 214.16 277.46 214.51 278.02C214.86 278.58 215.49 278.81 215.92 278.55C216.94 277.92 219.00 282.45 219.00 285.32C219.00 287.70 216.71 291.69 214.16 293.75C211.64 295.79 207.14 295.23 204.45 292.55ZM291.22 293.44C288.94 291.84 288.25 288.58 289.97 287.52C290.50 287.19 291.91 288.03 293.09 289.38C295.56 292.22 297.25 291.93 298.86 288.40C300.94 283.85 300.41 282.91 296.14 283.59C292.97 284.10 291.91 283.82 290.23 282.02C285.11 276.52 287.22 267.85 293.83 267.19C297.47 266.83 302.00 270.58 302.00 273.95C302.00 275.08 302.45 276.00 303.00 276.00C304.53 276.00 304.19 285.73 302.55 288.90C301.03 291.84 296.99 295.00 294.76 295.00C294.04 295.00 292.44 294.30 291.22 293.44ZM356.50 293.93C354.85 293.44 352.94 292.27 352.25 291.33C350.61 289.09 350.64 285.00 352.30 285.00C354.16 285.00 356.00 287.09 356.00 289.20C356.00 292.00 360.44 291.50 362.43 288.47C363.57 286.73 363.89 284.90 363.45 282.57C362.67 278.44 359.84 277.39 355.85 279.74C354.32 280.65 352.80 281.13 352.48 280.82C351.73 280.06 351.14 268.89 351.77 267.21C352.11 266.28 353.47 266.10 356.62 266.57C359.70 267.03 361.00 266.87 361.00 266.04C361.00 265.39 362.00 265.00 363.25 265.18C366.53 265.65 366.32 269.43 363.00 269.71C356.04 270.31 354.00 271.19 354.00 273.61C354.00 275.80 354.41 276.00 358.85 276.00C364.50 276.00 366.78 277.88 367.65 283.25C368.14 286.28 367.72 287.30 364.49 290.87C362.44 293.14 360.48 294.96 360.13 294.91C359.79 294.87 358.15 294.43 356.50 293.93ZM266.88 292.79C266.60 289.74 267.49 288.19 272.59 282.83C275.56 279.71 277.81 276.56 277.58 275.83C277.35 275.10 276.89 273.23 276.55 271.69C275.70 267.85 271.65 268.21 271.19 272.17C270.89 274.81 268.65 276.52 266.91 275.44C265.26 274.43 265.96 270.04 268.12 267.88C269.83 266.17 271.03 265.87 274.36 266.32C279.30 266.98 282.00 269.88 282.00 274.51C282.00 277.24 281.06 278.63 276.37 282.77C273.11 285.66 271.03 288.23 271.43 288.88C272.52 290.65 276.93 290.19 280.04 287.97L282.89 285.94L282.65 289.72L282.41 293.50L274.71 293.79C268.97 294.01 266.97 293.75 266.88 292.79ZM376.24 292.97C373.40 291.82 371.50 287.31 373.05 285.44C374.54 283.65 376.81 284.69 377.19 287.33C377.59 290.16 381.68 290.83 383.48 288.36C384.96 286.33 384.66 281.50 382.91 279.39C381.39 277.56 377.57 277.61 376.01 279.49C375.33 280.31 374.42 280.76 374.00 280.50C373.00 279.88 372.79 267.25 373.76 266.65C374.17 266.41 377.31 265.90 380.75 265.52C386.04 264.95 387.10 265.10 387.63 266.49C388.67 269.19 386.37 270.38 380.65 270.12C375.57 269.88 375.23 270.02 374.77 272.43C374.24 275.19 374.55 275.35 380.00 275.12C382.37 275.02 384.47 275.75 386.49 277.38C394.32 283.70 385.69 296.82 376.24 292.97ZM44.94 290.11C46.42 287.34 47.13 280.20 45.98 279.49C45.44 279.16 45.00 277.83 45.00 276.55C45.00 275.27 44.13 273.16 43.06 271.86C41.20 269.59 41.06 269.57 39.31 271.29C37.84 272.75 37.54 274.47 37.72 280.55C37.84 284.66 38.42 288.91 39.00 290.01C40.35 292.53 43.62 292.58 44.94 290.11ZM298.43 280.43C300.22 278.64 300.48 276.41 299.00 275.50C298.45 275.16 298.00 274.02 298.00 272.98C298.00 270.87 294.55 268.54 292.92 269.55C290.88 270.81 290.03 274.83 291.29 277.21C294.18 282.63 295.59 283.27 298.43 280.43ZM36.25 230.01C33.49 228.33 33.00 227.45 33.00 224.18C33.00 220.95 33.44 220.12 35.72 219.08L38.44 217.84L36.33 216.17C32.84 213.42 32.52 210.39 35.39 207.52C38.70 204.21 43.82 204.12 46.83 207.31C49.42 210.08 49.52 211.28 47.40 214.51C45.91 216.78 45.95 217.12 47.90 219.61C50.27 222.61 50.51 224.79 48.88 228.37C47.04 232.41 41.39 233.15 36.25 230.01ZM98.75 230.95C96.40 229.54 96.53 228.00 99.00 228.00C101.11 228.00 101.13 227.91 101.13 218.00C101.13 215.25 101.10 212.17 101.07 211.15C101.03 210.14 99.99 208.85 98.75 208.29C96.59 207.31 96.65 207.20 100.36 205.64C102.48 204.75 104.61 204.26 105.11 204.57C105.60 204.87 106.00 210.27 106.00 216.56C106.00 225.61 106.29 228.00 107.38 228.00C108.14 228.00 109.32 228.68 110.00 229.50C111.06 230.78 110.76 231.00 107.87 231.01C106.02 231.02 103.60 231.24 102.50 231.51C101.40 231.78 99.71 231.52 98.75 230.95ZM205.74 229.67C203.01 227.43 201.00 222.61 201.00 218.29C201.00 217.07 201.91 213.63 203.03 210.65C205.34 204.49 207.79 203.27 212.94 205.77C218.01 208.23 219.66 218.44 216.06 225.16C214.99 227.15 214.41 229.08 214.78 229.44C215.69 230.36 212.94 231.97 210.50 231.95C209.40 231.94 207.26 230.91 205.74 229.67ZM118.45 229.92C118.13 229.39 117.44 229.23 116.93 229.54C113.88 231.43 117.51 225.37 123.15 219.17C128.26 213.55 129.41 209.41 126.51 207.01C124.39 205.25 122.00 206.51 122.00 209.41C122.00 212.26 120.86 213.27 118.59 212.40C115.73 211.30 116.69 207.22 120.25 205.33C123.83 203.43 126.12 203.49 130.25 205.63C132.53 206.81 133.00 207.71 133.00 210.94C133.00 214.12 132.42 215.29 129.75 217.40C123.92 222.04 122.00 224.05 122.00 225.54C122.00 228.01 126.87 227.24 129.56 224.34C132.50 221.17 133.18 221.62 133.43 226.86L133.62 230.81L126.33 230.83C122.32 230.85 118.77 230.44 118.45 229.92ZM180.98 228.97C180.05 227.23 180.65 226.16 185.32 221.23C191.64 214.54 193.34 211.65 192.50 209.01C191.83 206.88 188.24 205.34 186.98 206.65C186.54 207.12 186.02 208.62 185.83 210.00C185.35 213.61 181.61 213.46 181.19 209.81C180.75 205.98 184.67 203.56 190.14 204.29C195.28 204.98 196.40 206.10 196.40 210.52C196.40 213.46 195.46 214.99 190.70 219.80C187.56 222.97 185.00 225.88 185.00 226.28C185.00 227.93 191.77 226.91 193.50 225.00C196.09 222.13 196.73 222.50 196.73 226.85L196.73 230.70L189.39 230.84C182.99 230.96 181.92 230.73 180.98 228.97ZM266.22 229.00C265.93 228.18 265.51 227.16 265.28 226.74C265.06 226.33 267.32 223.40 270.31 220.24C276.01 214.22 277.53 211.26 276.53 208.11C275.41 204.57 270.88 204.86 270.43 208.50C270.36 209.05 270.24 210.09 270.15 210.82C269.93 212.73 265.59 211.84 265.20 209.81C265.02 208.88 265.63 206.97 266.55 205.56C267.93 203.46 269.01 203.00 272.62 203.00C278.10 203.00 281.00 205.56 281.00 210.39C281.00 213.21 280.02 214.75 275.25 219.40C270.54 223.99 269.77 225.19 271.00 225.99C273.52 227.64 276.81 227.11 278.42 224.81C280.28 222.16 280.71 222.49 281.16 226.89L281.50 230.28L274.12 230.39C268.39 230.48 266.63 230.16 266.22 229.00ZM288.85 228.01C285.48 224.64 285.64 221.74 289.36 218.81L291.50 217.11L289.25 215.02C286.31 212.28 286.39 208.52 289.45 205.45C292.71 202.20 295.51 202.36 299.15 205.99C302.29 209.14 302.36 211.68 299.38 215.08C298.19 216.44 298.34 216.97 300.50 219.00C305.49 223.69 302.28 231.00 295.23 231.00C292.80 231.00 291.00 230.15 288.85 228.01ZM354.32 229.92C351.98 229.06 349.00 225.29 349.00 223.21C349.00 221.04 353.43 222.22 353.86 224.50C354.06 225.60 354.74 226.83 355.37 227.23C356.85 228.20 360.05 228.21 359.84 227.25C359.75 226.84 360.01 225.30 360.42 223.84C361.41 220.34 359.65 217.21 356.47 216.82C353.81 216.48 353.45 214.70 355.97 214.33C357.66 214.08 360.00 211.21 360.00 209.38C360.00 207.43 357.09 205.03 355.47 205.65C354.66 205.96 354.00 207.08 354.00 208.14C354.00 210.44 351.32 211.72 349.75 210.15C348.25 208.65 350.60 204.27 353.41 203.35C356.26 202.41 361.09 202.83 362.68 204.15C364.51 205.67 364.33 209.98 362.34 212.18C360.78 213.91 360.81 214.17 362.84 216.32C365.89 219.58 365.85 226.22 362.75 228.22C359.58 230.26 356.77 230.83 354.32 229.92ZM378.50 230.26C376.11 229.76 371.06 224.39 370.84 222.11C370.01 213.49 371.14 207.55 374.24 204.25C376.84 201.47 381.10 201.34 383.47 203.97C384.45 205.05 385.88 208.63 386.64 211.93C387.89 217.34 387.85 218.43 386.23 223.11C384.33 228.61 381.79 230.96 378.50 230.26ZM44.80 227.80C45.46 227.14 46.00 225.79 46.00 224.80C46.00 222.92 42.67 219.00 41.07 219.00C39.48 219.00 37.00 222.05 37.00 224.00C37.00 227.94 42.15 230.45 44.80 227.80ZM212.07 226.87C214.01 223.24 214.27 213.42 212.51 210.02C210.55 206.23 207.33 206.00 205.98 209.57C204.42 213.66 204.78 224.24 206.56 226.78C208.52 229.58 210.60 229.61 212.07 226.87ZM298.83 225.15C299.15 222.93 295.71 218.00 293.85 218.00C293.41 218.00 292.30 219.14 291.38 220.54C290.03 222.60 289.93 223.56 290.87 225.60C291.81 227.67 292.60 228.07 295.26 227.81C297.79 227.57 298.57 226.98 298.83 225.15ZM382.29 222.28C383.24 217.35 382.28 207.85 380.67 206.25C377.02 202.59 373.83 207.86 373.87 217.50C373.89 222.41 374.29 223.81 376.04 225.24C378.78 227.45 381.55 226.15 382.29 222.28ZM43.81 211.17C44.10 208.23 43.90 208.00 41.06 208.00C38.48 208.00 38.00 208.38 38.00 210.45C38.00 212.86 40.54 215.22 42.50 214.64C43.05 214.48 43.64 212.92 43.81 211.17ZM296.80 210.72C296.40 206.70 293.41 204.79 291.51 207.35C290.00 209.38 290.48 211.85 292.74 213.68C295.10 215.60 297.14 214.12 296.80 210.72ZM36.15 167.99C34.42 166.26 32.95 163.87 32.89 162.67C32.82 161.48 32.62 159.22 32.44 157.65C32.25 156.08 32.98 152.45 34.06 149.58C37.10 141.45 43.43 139.35 48.37 144.84C50.43 147.13 49.95 150.00 47.51 150.00C46.66 150.00 45.44 148.88 44.82 147.50C44.19 146.12 43.41 145.01 43.09 145.02C41.89 145.05 40.27 146.56 39.15 148.68C37.20 152.39 37.69 153.28 41.32 152.60C49.24 151.11 52.59 163.12 45.81 168.74C42.52 171.47 39.39 171.23 36.15 167.99ZM119.17 167.69C116.61 164.96 116.36 162.18 118.60 161.32C119.63 160.93 120.97 161.68 122.37 163.44C124.46 166.06 124.61 166.09 126.15 164.33C127.04 163.32 128.09 161.42 128.50 160.10C129.20 157.79 129.08 157.73 125.13 158.26C121.93 158.69 120.44 158.35 118.40 156.74C116.04 154.89 115.84 154.22 116.39 150.14C117.17 144.45 120.24 141.00 124.52 141.00C129.80 141.00 133.30 146.55 133.36 154.99C133.41 161.57 131.17 166.34 127.03 168.48C123.06 170.54 121.72 170.40 119.17 167.69ZM203.58 167.88C201.65 166.36 200.98 165.03 201.19 163.13C201.58 159.77 204.22 159.68 205.00 163.00C205.73 166.14 209.80 166.99 211.69 164.40C213.67 161.71 213.30 156.59 211.00 154.50C209.22 152.89 208.68 152.84 206.25 154.06C204.74 154.82 203.14 155.61 202.70 155.82C202.26 156.03 202.04 153.12 202.20 149.35L202.50 142.50L208.25 142.20C211.41 142.04 214.00 141.47 214.00 140.95C214.00 139.52 215.71 139.81 216.30 141.34C217.28 143.88 215.10 145.44 209.81 145.97C204.87 146.46 204.48 146.70 204.17 149.35C203.87 152.02 204.02 152.15 206.80 151.54C210.89 150.65 214.84 151.83 216.21 154.37C218.83 159.20 215.79 167.18 210.65 168.97C206.74 170.34 206.69 170.33 203.58 167.88ZM184.75 168.27C180.50 167.83 179.34 165.00 183.41 165.00C185.60 165.00 185.85 164.53 186.16 159.75C186.79 150.01 186.14 146.16 183.77 145.81C182.61 145.64 181.50 145.01 181.30 144.42C180.89 143.17 188.67 140.33 189.69 141.35C190.06 141.73 190.25 146.70 190.11 152.41C189.87 161.96 190.02 162.94 192.03 164.81C193.23 165.93 193.91 167.33 193.55 167.92C192.89 168.99 191.98 169.03 184.75 168.27ZM265.62 168.29C263.85 166.52 265.62 162.89 271.02 157.26C277.66 150.33 278.90 146.09 274.89 143.94C272.45 142.63 271.30 143.50 270.83 147.00C270.58 148.91 269.91 149.50 268.00 149.50C264.52 149.50 264.28 146.21 267.51 142.75C272.20 137.73 279.45 139.64 280.95 146.29C281.90 150.50 281.23 151.77 274.94 157.65C272.22 160.19 270.00 162.66 270.00 163.14C270.00 164.89 277.00 164.02 278.69 162.05C279.61 160.98 280.73 160.33 281.18 160.61C282.48 161.42 282.13 167.02 280.75 167.49C278.45 168.27 266.25 168.91 265.62 168.29ZM351.75 166.88C348.68 164.60 348.21 161.90 350.54 159.96C352.39 158.43 353.70 159.52 354.17 163.00C354.48 165.33 355.17 165.64 358.90 165.12C360.26 164.94 361.73 159.78 361.08 157.50C360.70 156.19 359.46 155.38 357.50 155.16C351.90 154.54 351.90 152.69 357.50 151.80C361.35 151.19 360.28 143.00 356.35 143.00C355.58 143.00 354.68 144.35 354.35 146.00C353.59 149.78 350.00 150.32 350.00 146.65C350.00 141.31 358.41 138.47 362.75 142.34C365.48 144.77 365.60 147.04 363.18 150.03C361.40 152.22 361.41 152.34 363.68 154.79C367.02 158.39 366.64 161.66 362.43 165.63C358.34 169.49 355.66 169.80 351.75 166.88ZM287.57 167.11C287.26 166.62 288.14 165.93 289.51 165.59C291.95 164.98 292.00 164.76 292.00 155.39C292.00 146.65 291.82 145.77 290.00 145.29C288.90 145.00 288.00 144.38 288.00 143.90C288.00 142.86 295.09 139.75 295.81 140.48C296.09 140.76 296.23 146.17 296.13 152.51C295.94 163.99 295.94 164.03 298.47 164.99C299.86 165.52 301.00 166.41 301.00 166.98C301.00 168.24 288.34 168.37 287.57 167.11ZM372.04 165.81C370.92 164.61 370.00 162.55 370.00 161.24C370.00 159.34 370.46 158.93 372.25 159.18C373.58 159.37 374.50 160.20 374.51 161.21C374.53 163.77 376.53 165.28 378.90 164.53C380.96 163.88 381.44 162.50 381.02 158.50C380.70 155.55 379.07 154.00 376.29 154.00C374.77 154.00 373.99 153.52 374.25 152.75C374.48 152.06 375.41 151.49 376.31 151.49C377.21 151.48 378.72 150.71 379.65 149.78C381.06 148.37 381.15 147.63 380.20 145.54C378.63 142.09 375.00 142.06 375.00 145.50C375.00 147.33 374.47 148.00 373.00 148.00C370.22 148.00 370.34 143.69 373.19 141.04C375.99 138.43 380.02 138.44 383.37 141.07C386.74 143.73 386.92 148.22 383.75 150.50L381.50 152.11L384.15 154.31C385.61 155.51 386.99 157.40 387.22 158.50C387.77 161.08 385.52 165.65 383.06 166.97C379.69 168.77 374.26 168.20 372.04 165.81ZM43.96 165.07C45.49 162.22 45.23 157.43 43.47 155.98C42.27 154.98 41.38 154.96 39.34 155.89C37.00 156.96 36.80 157.48 37.30 161.18C38.06 166.85 41.83 169.05 43.96 165.07ZM127.43 154.43C129.29 152.56 129.40 150.96 127.86 147.60C125.44 142.27 121.00 143.77 121.00 149.92C121.00 155.51 124.15 157.71 127.43 154.43ZM39.75 106.28C36.55 105.80 36.11 104.05 39.00 103.29C40.10 103.00 41.00 102.11 41.00 101.31C41.00 100.26 39.95 99.90 37.25 100.02C35.19 100.12 32.94 100.15 32.25 100.10C30.36 99.95 30.75 97.53 33.00 95.50C34.10 94.50 35.00 93.30 35.00 92.83C35.00 92.35 36.13 90.17 37.51 87.98C38.89 85.79 39.78 84.00 39.49 84.00C39.19 84.00 39.65 82.65 40.50 81.00C42.47 77.18 44.97 77.05 45.09 80.75C45.60 95.95 45.81 97.41 47.60 98.04C49.31 98.64 49.30 98.73 47.46 99.78C45.78 100.73 45.68 101.18 46.75 102.93C49.21 106.95 47.99 107.53 39.75 106.28ZM205.73 105.00C202.01 102.07 200.63 96.97 201.43 89.11C202.25 81.10 204.03 77.99 207.77 78.03C210.99 78.07 214.48 80.42 213.55 81.92C213.17 82.53 213.47 82.76 214.23 82.46C215.14 82.12 215.96 83.41 216.79 86.49C218.16 91.61 217.14 98.24 214.28 102.81C213.36 104.29 212.58 105.56 212.55 105.63C212.52 105.69 211.56 106.04 210.41 106.39C209.05 106.81 207.41 106.32 205.73 105.00ZM119.43 102.50C117.00 99.31 116.82 98.45 117.35 92.75C117.67 89.31 118.09 85.42 118.29 84.10C118.73 81.17 123.35 77.00 126.15 77.00C128.14 77.00 134.00 82.31 134.00 84.11C134.00 85.76 130.33 85.02 128.50 83.00C126.05 80.29 124.15 80.49 122.98 83.57C121.30 87.98 121.70 89.29 124.51 88.59C127.40 87.86 132.45 90.11 133.38 92.54C134.82 96.29 133.96 100.19 131.08 103.08C126.91 107.25 122.90 107.05 119.43 102.50ZM181.50 104.00C181.16 103.45 182.03 102.56 183.44 102.02C185.92 101.08 186.00 100.79 186.00 92.06C186.00 84.51 185.72 82.93 184.25 82.17C183.29 81.68 181.94 81.47 181.25 81.72C180.56 81.96 180.00 81.52 180.00 80.74C180.00 79.95 181.80 78.60 183.99 77.74C189.61 75.53 189.49 75.22 189.82 91.77C189.99 100.73 190.09 101.08 192.56 102.02C196.61 103.56 194.41 105.00 188.00 105.00C184.76 105.00 181.84 104.55 181.50 104.00ZM266.50 104.00C265.66 102.65 266.79 101.00 268.56 101.00C269.72 101.00 270.00 99.04 270.00 91.00L270.00 81.00L267.50 81.00C264.01 81.00 264.38 79.65 268.48 77.44C273.66 74.65 274.47 76.07 274.64 88.30C274.84 102.53 274.75 102.00 277.00 102.00C278.11 102.00 279.00 102.67 279.00 103.50C279.00 104.67 277.67 105.00 273.06 105.00C269.79 105.00 266.84 104.55 266.50 104.00ZM286.67 104.33C285.41 103.08 286.00 102.14 288.25 101.82C290.38 101.52 290.51 100.99 290.78 91.88L291.07 82.26L287.84 81.62C285.09 81.07 284.82 80.77 286.05 79.67C288.74 77.25 292.85 75.95 293.66 77.26C294.06 77.91 294.58 83.57 294.82 89.85C295.21 99.94 295.48 101.31 297.13 101.74C298.16 102.01 299.00 102.86 299.00 103.62C299.00 104.64 297.47 105.00 293.17 105.00C289.96 105.00 287.03 104.70 286.67 104.33ZM350.67 104.33C349.40 103.07 350.01 102.00 352.00 102.00C353.61 102.00 354.03 101.28 354.17 98.25C354.33 94.59 354.29 85.63 354.10 83.38C354.04 82.76 352.62 81.97 350.93 81.64C349.25 81.30 348.10 80.65 348.38 80.19C349.18 78.89 356.92 76.59 357.74 77.40C358.13 77.80 358.69 83.39 358.98 89.81C359.39 98.98 359.80 101.50 360.92 101.50C363.32 101.50 363.22 103.71 360.79 104.36C357.73 105.18 351.50 105.16 350.67 104.33ZM370.06 104.06C368.87 103.30 368.83 102.67 369.84 100.45C370.99 97.93 371.19 97.86 372.86 99.38C375.67 101.91 380.65 101.46 382.59 98.50C384.99 94.84 386.00 95.43 386.00 100.50L386.00 105.00L378.75 104.98C374.76 104.98 370.85 104.56 370.06 104.06ZM128.80 96.19C128.55 92.29 128.14 91.45 126.37 91.20C123.10 90.73 120.70 93.74 121.42 97.41C122.21 101.41 124.61 103.28 127.19 101.90C128.74 101.07 129.05 99.97 128.80 96.19ZM211.49 100.66C212.97 98.40 213.40 95.12 213.13 88.30C212.97 84.44 208.50 79.34 206.63 80.90C205.25 82.04 204.56 86.36 204.61 93.50C204.68 101.98 208.21 105.66 211.49 100.66ZM41.68 93.46L40.64 88.91L38.36 91.71C34.83 96.02 35.44 97.73 40.61 97.92C42.61 98.00 42.67 97.75 41.68 93.46ZM374.00 96.42C374.00 96.10 375.57 93.91 377.50 91.57C382.44 85.54 381.95 80.00 376.47 80.00C374.70 80.00 374.42 80.48 374.77 82.88C375.23 86.05 374.05 87.34 371.57 86.39C370.44 85.96 370.02 84.72 370.18 82.33C370.46 78.27 371.33 77.40 376.00 76.53C378.94 75.98 380.00 76.32 382.65 78.69C385.83 81.53 386.33 82.69 386.12 86.72C385.97 89.46 374.00 99.04 374.00 96.42ZM31.40 40.83C30.17 38.85 32.33 34.08 36.13 30.41C38.35 28.26 40.83 25.23 41.65 23.67C42.97 21.15 42.96 20.58 41.50 18.36C39.27 14.95 36.58 15.66 36.19 19.76C35.93 22.42 35.45 23.00 33.50 23.00C28.91 23.00 29.00 17.94 33.64 14.60C39.36 10.48 47.00 14.26 47.00 21.20C47.00 23.67 45.88 25.33 41.49 29.40C35.14 35.29 34.63 37.01 39.25 36.98C42.78 36.97 45.33 35.80 44.91 34.39C44.76 33.90 45.43 33.35 46.38 33.16C47.86 32.88 48.08 33.49 47.81 37.16L47.50 41.50L39.72 41.60C35.44 41.66 31.69 41.31 31.40 40.83ZM202.14 39.92C201.07 38.78 199.99 36.75 199.74 35.42C199.05 31.81 202.56 32.24 204.50 36.00C206.18 39.24 207.70 39.71 210.24 37.75C212.74 35.82 212.70 33.04 210.08 28.00C208.94 25.81 205.13 25.57 202.94 27.56C201.18 29.15 200.99 29.15 200.41 27.61C199.67 25.69 200.47 15.67 201.49 14.02C201.99 13.21 202.85 13.33 204.50 14.41C206.49 15.71 206.89 15.72 207.36 14.49C207.71 13.58 209.21 13.11 211.46 13.19C215.40 13.34 215.42 13.35 213.96 16.07C213.15 17.58 211.85 18.00 207.96 18.00C203.12 18.00 203.00 18.07 203.00 21.00C203.00 23.93 203.12 24.00 207.96 24.00C213.26 24.00 214.24 24.86 216.01 31.04C216.80 33.79 214.37 39.44 211.62 41.23C209.33 42.73 204.08 42.00 202.14 39.92ZM287.52 41.03C287.15 40.44 287.19 38.50 287.61 36.73C288.03 34.95 288.42 33.05 288.49 32.50C288.69 30.89 290.19 27.77 292.68 23.77C295.77 18.80 295.62 18.00 291.56 18.00C289.19 18.00 287.65 18.66 286.64 20.11C284.49 23.17 283.05 21.69 284.02 17.43C284.46 15.45 285.04 13.63 285.30 13.37C285.56 13.11 289.20 13.21 293.39 13.59C299.80 14.17 301.00 14.56 301.00 16.08C301.00 17.07 300.59 18.13 300.09 18.44C297.31 20.16 293.58 28.93 293.06 35.00C292.57 40.68 292.23 41.54 290.34 41.81C289.16 41.98 287.89 41.63 287.52 41.03ZM352.75 41.28C349.60 40.81 348.96 38.00 352.00 38.00C353.91 38.00 354.53 36.57 354.16 33.00C354.08 32.17 353.95 28.46 353.88 24.75C353.77 18.34 353.64 18.00 351.38 18.00C350.07 18.00 349.01 17.44 349.03 16.75C349.07 15.15 356.17 11.77 357.24 12.84C357.69 13.29 358.12 18.91 358.21 25.33C358.37 36.69 358.43 37.00 360.60 37.00C364.29 37.00 363.95 39.37 360.08 40.72C358.11 41.41 356.27 41.91 356.00 41.84C355.73 41.76 354.26 41.51 352.75 41.28ZM116.70 37.87C114.04 34.48 114.16 31.00 116.93 31.00C117.89 31.00 119.36 32.53 120.30 34.50C122.17 38.42 122.67 38.62 125.65 36.54C129.48 33.85 126.48 27.59 121.00 26.84C118.17 26.45 117.97 24.68 120.70 24.14C126.44 23.00 126.69 15.00 120.98 15.00C120.52 15.00 119.99 16.24 119.82 17.75C119.59 19.72 118.86 20.59 117.25 20.82C113.85 21.30 114.06 15.66 117.52 13.40C120.43 11.49 126.46 12.03 128.85 14.42C130.95 16.52 130.73 21.74 128.47 23.40C126.69 24.70 126.73 24.88 129.31 27.95C134.55 34.19 131.23 41.00 122.94 41.00C119.88 41.00 118.67 40.40 116.70 37.87ZM371.75 40.31C369.09 39.62 369.65 38.32 373.13 37.11C375.96 36.12 376.19 35.72 375.63 32.88C375.28 31.16 375.00 26.88 375.00 23.38C375.00 17.24 374.91 17.00 372.50 17.00C371.12 17.00 370.00 16.62 370.00 16.15C370.00 14.99 377.61 11.64 378.70 12.32C379.19 12.62 379.53 18.27 379.47 24.88L379.36 36.90L381.92 37.20C383.41 37.37 384.62 38.23 384.81 39.25C385.10 40.76 384.36 40.98 379.32 40.88C376.12 40.82 372.71 40.56 371.75 40.31Z"/>
</svg>
